<svg width="32" height="32" viewBox="0 0 32 32" fill="none" xmlns="http://www.w3.org/2000/svg">
<path fill-rule="evenodd" clip-rule="evenodd" d="M30 16C30 18.5544 29.4762 20.969 28.5447 23.1111H16.875C19.0298 19.7584 21.25 15.6984 21.25 11.5556C21.25 6.22432 17.6961 1.73631 12.8638 0.403015C13.872 0.139299 14.9218 0 16 0C23.732 0 30 7.16345 30 16ZM17.75 11.5556C17.75 7.13728 14.2242 3.55556 9.87499 3.55556C4.05568 3.55556 2 11.1174 2 16C2 24.8366 8.26801 32 16 32C20.1463 32 23.8716 29.94 26.4351 26.6667H9.87499C10.1828 26.2679 10.5052 25.857 10.8364 25.4349C13.9137 21.5122 17.75 16.622 17.75 11.5556Z" fill="#7859CF"/>
</svg>
